<?xml version="1.0" encoding="UTF-8" standalone="yes"?>
<svg width="460" height="460" viewBox="0 0 460 460" version="1.2" baseProfile="tiny-ps" xmlns="http://www.w3.org/2000/svg">
  <title>bimi-svg-tiny-12-ps</title>
  <path d="M 318.035 97.550 C 318.055 98.073, 318.749 99.625, 319.577 101 L 321.083 103.500 320.429 101 C 319.747 98.392, 317.971 95.833, 318.035 97.550 M 245.500 101.841 C 243.850 102.754, 242.313 103.612, 242.083 103.750 C 241.854 103.888, 241.874 104.207, 242.128 104.461 C 242.381 104.715, 244.369 103.829, 246.544 102.492 C 250.973 99.772, 250.159 99.265, 245.500 101.841 M 236.105 143.085 C 234.787 143.612, 233.938 144.271, 234.216 144.549 C 234.800 145.133, 240 143.313, 240 142.525 C 240 141.803, 238.922 141.958, 236.105 143.085 M 329.750 176.689 C 328.788 176.941, 328 177.522, 328 177.980 C 328 179.009, 331.827 178.088, 332.575 176.879 C 333.142 175.961, 332.661 175.929, 329.750 176.689 M 286.269 187.693 C 287.242 187.947, 288.592 187.930, 289.269 187.656 C 289.946 187.382, 289.150 187.175, 287.500 187.195 C 285.850 187.215, 285.296 187.439, 286.269 187.693 M 292.250 188.689 C 293.212 188.941, 294.788 188.941, 295.750 188.689 C 296.712 188.438, 295.925 188.232, 294 188.232 C 292.075 188.232, 291.288 188.438, 292.250 188.689 M 252.500 197 C 250.352 199.200, 249.044 201, 249.594 201 C 250.144 201, 252.352 199.200, 254.500 197 C 256.648 194.800, 257.956 193, 257.406 193 C 256.856 193, 254.648 194.800, 252.500 197" stroke="none" fill="#3dea33" fill-rule="evenodd"/>
  <path d="M 226.044 114.800 C 225.985 116.533, 229.012 122.321, 229.646 121.687 C 229.920 121.413, 229.232 119.459, 228.116 117.344 C 227.001 115.230, 226.069 114.085, 226.044 114.800 M 235.232 127 C 235.232 128.925, 235.438 129.713, 235.689 128.750 C 235.941 127.787, 235.941 126.213, 235.689 125.250 C 235.438 124.287, 235.232 125.075, 235.232 127 M 344.026 134.567 C 345.550 138.578, 347.115 141.218, 347.651 140.683 C 348.171 140.162, 344.273 132, 343.504 132 C 343.254 132, 343.489 133.155, 344.026 134.567 M 215.238 139.750 C 217.384 144.269, 218.468 146, 219.153 146 C 219.601 146, 219.217 144.425, 218.299 142.500 C 217.381 140.575, 216.236 139, 215.756 139 C 215.275 139, 215.042 139.338, 215.238 139.750 M 245 160.500 C 243.625 161.286, 242.950 161.929, 243.500 161.929 C 244.050 161.929, 245.625 161.286, 247 160.500 C 248.375 159.714, 249.050 159.071, 248.500 159.071 C 247.950 159.071, 246.375 159.714, 245 160.500 M 215.049 164.097 C 216.199 166.350, 217.352 167.981, 217.613 167.721 C 218.286 167.048, 214.800 160, 213.794 160 C 213.335 160, 213.900 161.844, 215.049 164.097 M 342.044 213.800 C 341.985 215.533, 345.012 221.321, 345.646 220.687 C 345.920 220.413, 345.232 218.459, 344.116 216.344 C 343.001 214.230, 342.069 213.085, 342.044 213.800" stroke="none" fill="#ff2634" fill-rule="evenodd"/>
  <path d="" stroke="none" fill="#a4467b" fill-rule="evenodd"/>
  <path d="M 203 122.500 C 204.375 123.286, 205.950 123.929, 206.500 123.929 C 207.050 123.929, 206.375 123.286, 205 122.500 C 203.625 121.714, 202.050 121.071, 201.500 121.071 C 200.950 121.071, 201.625 121.714, 203 122.500 M 192 168.500 C 193.375 169.286, 194.950 169.929, 195.500 169.929 C 196.050 169.929, 195.375 169.286, 194 168.500 C 192.625 167.714, 191.050 167.071, 190.500 167.071 C 189.950 167.071, 190.625 167.714, 192 168.500 M 185 191.500 C 186.375 192.286, 187.950 192.929, 188.500 192.929 C 189.050 192.929, 188.375 192.286, 187 191.500 C 185.625 190.714, 184.050 190.071, 183.500 190.071 C 182.950 190.071, 183.625 190.714, 185 191.500 M 312.441 244.445 C 313.509 245.300, 314.821 246, 315.358 246 C 316.628 246, 316.061 245.538, 313 244.080 C 310.643 242.958, 310.611 242.978, 312.441 244.445" stroke="none" fill="#00ffff" fill-rule="evenodd"/>
  <path d="M 308.500 117.057 C 310.700 117.512, 313.850 117.866, 315.500 117.843 C 318.429 117.802, 318.441 117.782, 316 117 C 314.625 116.560, 311.475 116.206, 309 116.215 L 304.500 116.230 308.500 117.057 M 226.726 186.250 C 227.361 193.958, 227.831 194.351, 227.921 187.250 C 227.964 183.813, 227.616 181, 227.147 181 C 226.678 181, 226.488 183.363, 226.726 186.250" stroke="none" fill="#ffeaf6" fill-rule="evenodd"/>
  <path d="M 263.924 146.750 L 261.500 149.500 264.250 147.076 C 265.762 145.742, 267 144.505, 267 144.326 C 267 143.541, 266.190 144.180, 263.924 146.750 M 271.405 219.250 C 269.502 221.498, 269.502 221.499, 271.581 219.748 C 272.726 218.784, 274.035 218.334, 274.491 218.748 C 274.948 219.162, 274.997 218.938, 274.601 218.250 C 273.660 216.615, 273.628 216.625, 271.405 219.250" stroke="none" fill="#a068eb" fill-rule="evenodd"/>
  <path d="" stroke="none" fill="#c20c50" fill-rule="evenodd"/>
  <path d="M 270.015 101.750 C 270.007 102.987, 270.450 104, 271 104 C 272.253 104, 272.253 102.939, 271 101 C 270.216 99.787, 270.028 99.931, 270.015 101.750 M 235.015 122.191 C 235.007 123.121, 235.450 124.160, 236 124.500 C 237.266 125.282, 237.266 123.958, 236 122 C 235.165 120.707, 235.029 120.734, 235.015 122.191 M 267.405 143.847 C 268.143 145.040, 262.544 150.194, 261.520 149.264 C 261.058 148.844, 261.027 149.102, 261.452 149.837 C 262.038 150.850, 263.036 150.388, 265.574 147.928 C 268.429 145.161, 269.222 143, 267.382 143 C 267.107 143, 267.118 143.381, 267.405 143.847 M 240.628 161.792 C 240.359 162.228, 241.017 162.651, 242.091 162.732 C 243.165 162.813, 243.782 162.456, 243.463 161.939 C 242.754 160.793, 241.293 160.717, 240.628 161.792 M 302.388 164.193 C 302.450 165.371, 303.175 166.518, 304 166.743 C 305.233 167.079, 305.255 166.981, 304.122 166.188 C 303.364 165.658, 303.034 164.754, 303.388 164.181 C 303.743 163.607, 303.637 162.894, 303.154 162.595 C 302.671 162.297, 302.326 163.016, 302.388 164.193 M 259 167 C 260.957 168.264, 263 168.264, 263 167 C 263 166.450, 261.762 166.007, 260.250 166.015 C 258.107 166.027, 257.831 166.245, 259 167" stroke="none" fill="#ff9ac2" fill-rule="evenodd"/>
  <path d="M 269.881 106.781 C 269.552 108.769, 269.698 109.702, 270.253 109.147 C 270.757 108.643, 271.002 107.166, 270.797 105.865 C 270.482 103.864, 270.342 104.004, 269.881 106.781 M 152.024 243.250 C 152.038 244.488, 152.461 247.300, 152.965 249.500 C 153.468 251.700, 154.579 258.860, 155.434 265.410 C 156.288 271.961, 157.207 277.541, 157.476 277.809 C 157.744 278.078, 159.787 276.318, 162.015 273.899 C 165.927 269.651, 166.049 269.311, 165.581 264 C 165.315 260.975, 164.791 256.813, 164.417 254.750 L 163.738 251 172.172 251 L 180.605 251 184.803 246.844 C 187.111 244.559, 189 242.309, 189 241.844 C 189 241.380, 180.675 241, 170.500 241 L 152 241 152.024 243.250 M 183.715 268.707 C 172.283 274.526, 163.058 279.588, 163.215 279.955 C 163.372 280.322, 165.397 282.321, 167.717 284.397 L 171.933 288.172 177.717 285.181 C 180.897 283.536, 187.100 280.392, 191.500 278.195 C 195.900 275.999, 200.850 273.503, 202.500 272.649 C 204.150 271.796, 207.637 270.136, 210.250 268.960 C 212.863 267.784, 215 266.481, 215 266.064 C 215 264.513, 207.841 258.002, 206.202 258.063 C 205.266 258.098, 195.147 262.887, 183.715 268.707 M 218.491 269.836 C 213.868 273.666, 211.877 277.295, 212.393 280.953 C 212.669 282.904, 213.170 286.637, 213.508 289.250 L 214.123 294 205.738 294 L 197.354 294 193.082 299.250 L 188.810 304.500 207.048 304.773 C 217.080 304.923, 225.485 304.849, 225.726 304.607 C 226.542 303.792, 221.811 269.468, 220.737 268.406 C 220.607 268.278, 219.596 268.921, 218.491 269.836" stroke="none" fill="#f68600" fill-rule="evenodd"/>
  <path d="M 160 140.695 C 156.975 144.279, 151.922 150.201, 148.770 153.856 C 145.619 157.510, 140.769 163.200, 137.992 166.500 C 135.216 169.800, 130.525 175.262, 127.568 178.638 C 118.792 188.655, 118.746 187.752, 128.450 196.131 L 136.887 203.418 133.694 207.654 C 131.937 209.983, 126 217.129, 120.500 223.533 C 105.961 240.462, 106.777 238.498, 112.260 243.366 C 114.822 245.639, 118.320 248.629, 120.033 250.009 L 123.149 252.518 118.325 258.093 C 113.839 263.275, 101.257 278.209, 89.500 292.303 C 86.750 295.600, 83.117 299.869, 81.427 301.789 L 78.354 305.282 84.640 310.891 C 88.098 313.976, 92.518 317.782, 94.463 319.348 C 96.408 320.915, 98 322.797, 98 323.530 C 98 324.262, 95.531 327.481, 92.514 330.681 C 89.497 333.881, 87.022 336.854, 87.014 337.286 C 87.006 337.719, 84.951 340.194, 82.447 342.786 L 77.894 347.500 80.645 349.500 C 82.157 350.600, 85.011 353.075, 86.987 355 C 90.388 358.314, 113.400 377.833, 126.313 388.355 L 132.270 393.210 137.635 387.491 C 140.586 384.345, 143 381.477, 143 381.116 C 143 380.755, 145.886 377.352, 149.413 373.555 L 155.826 366.651 159.413 369.576 C 161.386 371.184, 166.263 375.309, 170.250 378.742 C 174.238 382.175, 177.972 384.988, 178.549 384.992 C 179.126 384.996, 182.276 381.753, 185.549 377.784 C 188.822 373.815, 193.850 367.853, 196.722 364.534 C 199.594 361.215, 204.319 355.678, 207.222 352.228 C 210.125 348.778, 214.581 343.633, 217.125 340.794 L 221.749 335.631 227.232 340.316 C 232.700 344.987, 235 346.032, 235 343.847 C 235 343.212, 237.137 340.374, 239.750 337.538 C 242.363 334.703, 248.710 327.357, 253.855 321.214 L 263.210 310.045 269.007 315.087 L 274.804 320.129 278.152 316.640 C 279.993 314.721, 283.015 311.092, 284.867 308.576 C 286.719 306.059, 288.599 304, 289.046 304 C 289.493 304, 291.301 301.863, 293.064 299.250 C 294.827 296.637, 297.101 293.917, 298.117 293.206 C 299.134 292.494, 301.284 290.019, 302.895 287.706 C 304.507 285.392, 308.114 281.045, 310.913 278.045 C 313.711 275.045, 316 272.034, 316 271.356 C 316 270.677, 312.099 266.832, 307.331 262.811 C 302.563 258.790, 296.376 253.562, 293.581 251.194 C 290.786 248.826, 285.440 244.326, 281.700 241.194 C 277.961 238.062, 272.336 233.140, 269.200 230.256 C 266.065 227.371, 262.970 225.009, 262.323 225.006 C 261.675 225.003, 260.325 223.976, 259.323 222.725 C 258.320 221.473, 250.525 214.665, 242 207.595 C 233.475 200.526, 225.600 193.763, 224.500 192.567 C 223.400 191.371, 221.181 189.565, 219.570 188.555 C 216.659 186.730, 216.625 186.735, 214.570 189.188 C 213.431 190.546, 209.695 194.997, 206.267 199.079 C 202.839 203.161, 199.429 207.343, 198.690 208.374 C 197.417 210.148, 197.077 210.015, 192.280 205.874 C 189.494 203.468, 183.743 198.575, 179.501 195 C 175.259 191.425, 169.586 186.526, 166.895 184.114 L 162.002 179.728 164.501 177.412 C 165.875 176.138, 167 174.703, 167 174.223 C 167 173.742, 169.475 170.855, 172.500 167.806 C 175.525 164.756, 178 161.894, 178 161.445 C 178 160.996, 178.855 159.700, 179.900 158.564 C 181.792 156.510, 181.754 156.461, 172.400 148.558 C 167.230 144.191, 163 140.176, 163 139.637 C 163 139.098, 163.747 137.832, 164.661 136.823 C 165.574 135.813, 166.136 134.806, 165.911 134.583 C 165.685 134.361, 163.025 137.111, 160 140.695 M 152.024 243.250 C 152.038 244.488, 152.461 247.300, 152.965 249.500 C 153.468 251.700, 154.579 258.860, 155.434 265.410 C 156.288 271.961, 157.207 277.541, 157.476 277.809 C 157.744 278.078, 159.787 276.318, 162.015 273.899 C 165.927 269.651, 166.049 269.311, 165.581 264 C 165.315 260.975, 164.791 256.813, 164.417 254.750 L 163.738 251 172.172 251 L 180.605 251 184.803 246.844 C 187.111 244.559, 189 242.309, 189 241.844 C 189 241.380, 180.675 241, 170.500 241 L 152 241 152.024 243.250 M 183.715 268.707 C 172.283 274.526, 163.058 279.588, 163.215 279.955 C 163.372 280.322, 165.397 282.321, 167.717 284.397 L 171.933 288.172 177.717 285.181 C 180.897 283.536, 187.100 280.392, 191.500 278.195 C 195.900 275.999, 200.850 273.503, 202.500 272.649 C 204.150 271.796, 207.637 270.136, 210.250 268.960 C 212.863 267.784, 215 266.481, 215 266.064 C 215 264.513, 207.841 258.002, 206.202 258.063 C 205.266 258.098, 195.147 262.887, 183.715 268.707 M 218.491 269.836 C 213.868 273.666, 211.877 277.295, 212.393 280.953 C 212.669 282.904, 213.170 286.637, 213.508 289.250 L 214.123 294 205.738 294 L 197.354 294 193.082 299.250 L 188.810 304.500 207.048 304.773 C 217.080 304.923, 225.485 304.849, 225.726 304.607 C 226.542 303.792, 221.811 269.468, 220.737 268.406 C 220.607 268.278, 219.596 268.921, 218.491 269.836" stroke="none" fill="#efb56e" fill-rule="evenodd"/>
  <path d="M 303.992 70.513 C 302.798 72.445, 301.041 74.443, 300.088 74.953 C 299.135 75.463, 297.041 77.820, 295.434 80.190 C 293.828 82.561, 290.392 86.707, 287.799 89.404 L 283.085 94.308 279.009 90.904 C 276.768 89.032, 272.586 85.469, 269.717 82.986 C 266.848 80.504, 262.169 76.566, 259.320 74.236 L 254.140 69.999 250.320 74.625 C 248.219 77.168, 244.137 81.822, 241.250 84.965 C 238.363 88.109, 236 91.109, 236 91.632 C 236 92.155, 234.007 94.540, 231.570 96.931 L 227.140 101.279 222.820 97.943 C 220.444 96.109, 216.326 92.619, 213.668 90.187 L 208.836 85.767 205.418 89.079 C 203.538 90.902, 202 92.880, 202 93.476 C 202 94.072, 200.407 96.062, 198.461 97.898 C 196.514 99.735, 193.727 102.871, 192.268 104.868 C 190.808 106.866, 189.130 108.950, 188.539 109.500 C 187.947 110.050, 183.923 114.775, 179.595 120 C 175.268 125.225, 170.772 130.400, 169.605 131.500 C 167.057 133.902, 162.637 139.995, 163.141 140.411 C 168.127 144.521, 177.168 152.249, 179.257 154.186 C 181.661 156.415, 181.821 156.904, 180.507 157.994 C 179.678 158.682, 179 159.777, 179 160.426 C 179 161.076, 177.384 163.158, 175.409 165.054 C 173.434 166.949, 169.872 171.043, 167.493 174.150 L 163.169 179.800 167.769 184.400 C 170.299 186.930, 172.744 189, 173.202 189 C 173.661 189, 176.830 191.700, 180.244 195 C 183.659 198.300, 186.706 201, 187.016 201 C 187.326 201, 189.569 202.800, 192 205 C 194.431 207.200, 196.754 209, 197.163 209 C 197.572 209, 198.715 207.850, 199.703 206.445 C 200.691 205.040, 203.634 201.552, 206.242 198.695 C 208.850 195.838, 210.987 193.178, 210.992 192.784 C 210.996 192.391, 212.313 190.725, 213.919 189.083 L 216.837 186.098 220.370 188.799 C 222.312 190.284, 227.861 194.897, 232.701 199.048 C 237.540 203.200, 245.438 209.890, 250.250 213.916 C 255.063 217.942, 259 221.560, 259 221.957 C 259 222.354, 260.012 223.145, 261.250 223.714 C 263.415 224.710, 269.965 230.159, 282.342 241.260 C 285.554 244.142, 288.929 246.910, 289.842 247.410 C 290.754 247.911, 293.622 250.359, 296.215 252.851 C 298.809 255.343, 301.649 257.783, 302.526 258.274 C 303.403 258.765, 306.231 261.136, 308.810 263.543 C 311.390 265.950, 314.560 268.488, 315.854 269.184 C 317.981 270.328, 318.464 270.156, 320.854 267.411 C 323.279 264.626, 335.088 250.573, 347.500 235.701 C 350.250 232.406, 354.863 227.079, 357.750 223.864 C 360.637 220.648, 363 217.578, 363 217.040 C 363 216.503, 360.637 214.309, 357.750 212.165 C 347.548 204.590, 347.414 206.076, 359.630 191.379 C 365.519 184.296, 370.720 178.347, 371.189 178.160 C 371.658 177.972, 372.665 176.614, 373.427 175.141 C 375.063 171.978, 374.469 170.944, 368.500 166.566 C 366.300 164.952, 363.112 162.252, 361.416 160.566 L 358.332 157.500 361.405 153.500 C 363.096 151.300, 366.509 147.145, 368.990 144.267 C 379.330 132.269, 381 130.259, 381 129.812 C 381 129.554, 376.725 125.825, 371.500 121.526 C 366.275 117.227, 362 113.422, 362 113.070 C 362 112.719, 360.661 111.640, 359.023 110.673 C 357.386 109.706, 353.449 106.465, 350.273 103.472 C 347.098 100.478, 344.173 98.022, 343.774 98.014 C 343.374 98.006, 340.451 95.525, 337.277 92.500 C 334.104 89.475, 330.981 87, 330.337 87 C 329.693 87, 328.342 85.910, 327.333 84.577 C 325.518 82.178, 307.687 67, 306.684 67 C 306.398 67, 305.186 68.581, 303.992 70.513 M 288.548 96.093 C 289.428 97.794, 290.356 98.977, 290.611 98.722 C 291.292 98.041, 288.828 93, 287.814 93 C 287.338 93, 287.668 94.392, 288.548 96.093 M 318 97.739 C 318 99.641, 320.247 104, 321.228 104 C 321.727 104, 321.831 102.987, 321.460 101.750 C 320.657 99.073, 318 95.993, 318 97.739 M 270.582 100.250 C 269.394 106.110, 269.035 111.096, 269.837 110.601 C 270.323 110.300, 270.987 108.109, 271.313 105.732 C 271.639 103.355, 272.200 100.642, 272.560 99.705 C 272.929 98.742, 272.740 98, 272.126 98 C 271.528 98, 270.833 99.013, 270.582 100.250 M 244.750 102.068 C 242.688 103.157, 241 104.262, 241 104.524 C 241 105.666, 243.799 104.805, 247.500 102.526 C 252.262 99.593, 250.115 99.236, 244.750 102.068 M 225 114.614 C 225 115.880, 229.401 123, 230.184 123 C 231.375 123, 231.220 122.352, 228.980 117.960 C 227.243 114.555, 225 112.670, 225 114.614 M 308.500 117.057 C 310.700 117.512, 313.850 117.866, 315.500 117.843 C 318.429 117.802, 318.441 117.782, 316 117 C 314.625 116.560, 311.475 116.206, 309 116.215 L 304.500 116.230 308.500 117.057 M 200.810 121.271 C 202.256 123.014, 210.869 126.464, 211.699 125.634 C 212.017 125.316, 211.202 124.633, 209.889 124.115 C 208.575 123.598, 205.720 122.415, 203.546 121.488 C 200.348 120.125, 199.824 120.083, 200.810 121.271 M 235.554 121.250 C 234.502 124.677, 234.138 132, 235.019 132 C 235.559 132, 236 130.760, 236 129.243 C 236 127.727, 236.419 125.027, 236.930 123.243 C 237.519 121.189, 237.508 120, 236.899 120 C 236.370 120, 235.765 120.563, 235.554 121.250 M 268.750 122.572 C 266.312 123.894, 264.989 126, 266.596 126 C 267.765 126, 273 122.554, 273 121.784 C 273 120.663, 271.890 120.869, 268.750 122.572 M 302.032 121.135 C 302.014 121.485, 302.657 123.285, 303.461 125.135 C 304.538 127.617, 304.932 127.960, 304.961 126.441 C 304.995 124.656, 302.117 119.442, 302.032 121.135 M 178 124.500 C 178 125.325, 178.450 126, 179 126 C 179.550 126, 180 125.325, 180 124.500 C 180 123.675, 179.550 123, 179 123 C 178.450 123, 178 123.675, 178 124.500 M 343 132.966 C 343 134.616, 346.326 141, 347.185 141 C 348.422 141, 348.172 139.429, 346.315 135.534 C 344.719 132.188, 343 130.856, 343 132.966 M 215 139.050 C 215 140.901, 218.015 146, 219.109 146 C 219.691 146, 219.987 145.662, 219.768 145.250 C 219.549 144.838, 218.793 143.037, 218.087 141.250 C 216.864 138.151, 215 136.822, 215 139.050 M 317 138.842 C 317 139.960, 326.974 144.359, 327.751 143.583 C 328.057 143.277, 326.550 142.296, 324.404 141.404 C 322.257 140.512, 319.712 139.366, 318.750 138.856 C 317.706 138.304, 317 138.298, 317 138.842 M 265.383 145.368 C 262.698 147.808, 260.853 150.163, 261.285 150.603 C 261.717 151.043, 264.170 149.304, 266.737 146.737 C 272.795 140.679, 271.732 139.603, 265.383 145.368 M 293.044 142.486 C 289.488 143.770, 287.723 146, 290.263 146 C 292.622 146, 298.064 142.913, 297.451 141.922 C 297.138 141.415, 296.796 141.054, 296.691 141.119 C 296.586 141.185, 294.945 141.800, 293.044 142.486 M 235.750 142.689 C 234.787 142.941, 234 143.779, 234 144.552 C 234 145.701, 234.500 145.745, 236.750 144.789 C 242.127 142.504, 241.500 141.187, 235.750 142.689 M 195 144.781 C 195 145.666, 201.149 148.185, 201.777 147.556 C 202.175 147.158, 196.645 144, 195.550 144 C 195.247 144, 195 144.351, 195 144.781 M 351.250 154.795 C 348.913 155.562, 347 156.645, 347 157.202 C 347 157.779, 347.752 157.898, 348.750 157.478 C 349.712 157.074, 351.519 156.522, 352.765 156.252 C 354.824 155.806, 356.709 154.206, 355.850 153.634 C 355.658 153.506, 353.587 154.028, 351.250 154.795 M 208 156.318 C 208 157.787, 213.241 167, 214.077 167 C 214.554 167, 213.808 164.863, 212.420 162.250 C 209.901 157.510, 208 154.959, 208 156.318 M 248.500 158.488 C 246.850 159.282, 244.150 160.467, 242.500 161.123 C 240.534 161.904, 240.033 162.445, 241.046 162.691 C 242.968 163.160, 252 159.253, 252 157.953 C 252 156.768, 252.112 156.751, 248.500 158.488 M 213 159.966 C 213 161.616, 216.326 168, 217.185 168 C 218.296 168, 218.238 167.635, 216.391 163.020 C 214.921 159.346, 213 157.616, 213 159.966 M 302 163.678 C 302 164.820, 302.740 166.369, 303.644 167.120 C 305.116 168.341, 305.209 168.223, 304.532 165.992 C 303.466 162.481, 302 161.141, 302 163.678 M 312 162.819 C 312 163.760, 315.925 165.772, 320.250 167.049 C 321.861 167.524, 323 167.475, 323 166.930 C 323 166.419, 322.307 166, 321.460 166 C 320.613 166, 318.138 165.091, 315.960 163.980 C 313.782 162.868, 312 162.346, 312 162.819 M 188.500 166.789 C 189.977 168.390, 199 172.071, 199 171.073 C 199 170.602, 197.088 169.444, 194.750 168.499 C 187.885 165.723, 187.392 165.588, 188.500 166.789 M 257.500 167 C 257.139 167.583, 258.156 168, 259.941 168 C 261.623 168, 263 167.550, 263 167 C 263 166.450, 261.902 166, 260.559 166 C 259.216 166, 257.840 166.450, 257.500 167 M 329.746 176.625 C 328.236 177.416, 327 178.275, 327 178.532 C 327 179.530, 330.710 178.933, 332.460 177.653 C 335.109 175.716, 333.002 174.919, 329.746 176.625 M 226.726 186.250 C 227.361 193.958, 227.831 194.351, 227.921 187.250 C 227.964 183.813, 227.616 181, 227.147 181 C 226.678 181, 226.488 183.363, 226.726 186.250 M 285 187.906 C 286.986 189.024, 297 189.912, 297 188.970 C 297 187.867, 293.065 187.025, 288 187.044 C 285.027 187.055, 284.009 187.348, 285 187.906 M 184 191.500 C 185.375 192.286, 187.400 192.929, 188.500 192.929 C 190.267 192.929, 190.208 192.762, 188 191.500 C 186.625 190.714, 184.600 190.071, 183.500 190.071 C 181.733 190.071, 181.792 190.238, 184 191.500 M 252.477 197.023 C 249.781 199.760, 248.027 202, 248.579 202 C 249.879 202, 258.533 193.199, 257.877 192.544 C 257.603 192.270, 255.173 194.286, 252.477 197.023 M 341.559 214.250 C 341.941 215.488, 342.944 217.850, 343.788 219.500 C 346.016 223.856, 346.611 220.681, 344.461 215.913 C 342.578 211.738, 340.399 210.489, 341.559 214.250 M 269.289 221.025 C 266.367 223.783, 265.602 224.995, 266.789 224.983 C 267.730 224.974, 270.267 223.174, 272.426 220.983 C 277.549 215.785, 274.802 215.821, 269.289 221.025 M 316 219.927 C 316 220.398, 317.913 221.556, 320.250 222.501 C 327.115 225.277, 327.608 225.412, 326.500 224.211 C 325.023 222.610, 316 218.929, 316 219.927 M 293.192 223.075 C 293.389 223.666, 293.978 224.150, 294.500 224.150 C 295.022 224.150, 295.611 223.666, 295.808 223.075 C 296.005 222.484, 295.417 222, 294.500 222 C 293.583 222, 292.995 222.484, 293.192 223.075 M 310.439 243.902 C 311.203 245.137, 317 247.087, 317 246.108 C 317 245.261, 312.559 243, 310.894 243 C 310.337 243, 310.133 243.406, 310.439 243.902" stroke="none" fill="#ffa8de" fill-rule="evenodd"/>
  <path d="M 264.437 147.250 L 261.500 150.500 264.750 147.563 C 267.779 144.825, 268.460 144, 267.687 144 C 267.515 144, 266.052 145.463, 264.437 147.250" stroke="none" fill="#000000" fill-rule="evenodd"/>
  <path d="M 208.015 156.285 C 208.007 156.717, 209.346 159.417, 210.991 162.285 C 214.315 168.083, 215.113 168.025, 212.039 162.210 C 209.560 157.522, 208.035 155.276, 208.015 156.285 M 318.483 165.973 C 318.750 166.405, 319.876 166.996, 320.986 167.286 C 322.095 167.576, 322.784 167.460, 322.517 167.027 C 322.250 166.595, 321.124 166.004, 320.014 165.714 C 318.905 165.424, 318.216 165.540, 318.483 165.973" stroke="none" fill="#39c49b" fill-rule="evenodd"/>
  <path d="M 162.590 178.855 C 162.299 179.325, 163.285 180.787, 164.781 182.105 L 167.500 184.500 165.241 181.926 C 163.998 180.510, 163.286 179.048, 163.658 178.676 C 164.029 178.304, 164.060 178, 163.726 178 C 163.391 178, 162.880 178.385, 162.590 178.855" stroke="none" fill="#f3ae9b" fill-rule="evenodd"/>
</svg>