<svg xmlns="http://www.w3.org/2000/svg" fill="none" viewBox="0 0 130 131" height="131" width="130">
<path fill="#E5A8DF" d="M33.3889 79.0722C37.3946 79.0722 39.8961 83.4109 37.8891 86.8775L23.8156 111.187C22.3743 113.676 23.2282 116.863 25.7212 118.298L39.3003 126.117C41.7849 127.547 44.9587 126.697 46.3951 124.216L60.4998 99.8529C62.5026 96.3934 67.4974 96.3934 69.5002 99.8529L83.6048 124.216C85.0413 126.697 88.215 127.547 90.6997 126.117L104.279 118.298C106.772 116.863 107.626 113.676 106.184 111.187L92.1108 86.8775C90.1038 83.4109 92.6053 79.0722 96.611 79.0722H124.8C127.672 79.0722 130 76.744 130 73.8722V58.2569C130 55.3851 127.672 53.0569 124.8 53.0569H96.611C92.6053 53.0569 90.1038 48.7182 92.1108 45.2516L106.184 20.9424C107.626 18.4528 106.772 15.266 104.279 13.8306L90.6997 6.01231C88.2151 4.58175 85.0413 5.43215 83.6048 7.91336L69.5002 32.2761C67.4974 35.7356 62.5026 35.7356 60.4998 32.2761L46.3951 7.91336C44.9586 5.43214 41.7849 4.58175 39.3003 6.01231L25.7212 13.8306C23.2281 15.266 22.3742 18.4528 23.8156 20.9424L37.8892 45.2516C39.8962 48.7182 37.3947 53.0569 33.3889 53.0569H5.2C2.32812 53.0569 0 55.3851 0 58.2569V73.8722C0 76.744 2.32812 79.0722 5.2 79.0722H33.3889Z"></path>
</svg>
